<svg width="73" height="57" viewBox="0 0 73 57" fill="none" xmlns="http://www.w3.org/2000/svg">
<path d="M63.6556 43.9594H63.2136C62.3718 45.9377 61.1932 47.5583 59.6779 48.821C58.2047 50.0417 56.1632 50.652 53.5535 50.652C51.7436 50.652 50.081 50.3153 48.5657 49.6418C47.0924 48.9683 45.8086 47.9371 44.7143 46.548C43.662 45.159 42.8201 43.3912 42.1887 41.2445C41.5994 39.0978 41.3048 36.5512 41.3048 33.6048C41.3048 30.6584 41.5994 28.1118 42.1887 25.9651C42.8201 23.8184 43.662 22.0506 44.7143 20.6615C45.8086 19.2725 47.0924 18.2413 48.5657 17.5678C50.081 16.8943 51.7436 16.5576 53.5535 16.5576C54.8584 16.5576 56.0159 16.7259 57.0261 17.0627C58.0363 17.3994 58.9203 17.8624 59.6779 18.4517C60.4777 19.041 61.1511 19.7566 61.6983 20.5984C62.2876 21.3981 62.7927 22.2821 63.2136 23.2502H63.6556V3.17236H73V49.8944H63.6556V43.9594ZM57.5944 43.3912C59.236 43.3912 60.646 42.9913 61.8246 42.1915C63.0453 41.3918 63.6556 40.129 63.6556 38.4033V28.8063C63.6556 27.0806 63.0453 25.8178 61.8246 25.018C60.646 24.2183 59.236 23.8184 57.5944 23.8184C55.4898 23.8184 53.8692 24.4709 52.7328 25.7757C51.5963 27.0385 51.028 28.8063 51.028 31.0793V36.1303C51.028 38.4033 51.5963 40.1922 52.7328 41.497C53.8692 42.7598 55.4898 43.3912 57.5944 43.3912Z" fill="#205B75"/>
<path d="M25.0668 0.0901074L45.5121 56.7239L53.9094 56.6975L33.4641 0.0637108L25.0668 0.0901074Z" fill="#205B75"/>
<path d="M27.4649 46.9889C25.5287 46.9889 23.9713 46.5048 22.7928 45.5367C21.6142 44.5265 20.9197 43.0954 20.7092 41.2433H20.3935C19.8042 43.39 18.6257 45.0105 16.8578 46.1049C15.132 47.1993 13.0064 47.7465 10.4809 47.7465C7.32399 47.7465 4.77743 46.9047 2.8412 45.221C0.947067 43.4952 0 41.096 0 38.0233C0 34.6139 1.24171 32.0883 3.72513 30.4468C6.20855 28.8052 9.8495 27.9844 14.648 27.9844H19.8884V26.3428C19.8884 24.4066 19.4254 22.9544 18.4994 21.9863C17.6155 20.9761 16.1001 20.471 13.9535 20.471C11.9751 20.471 10.3756 20.8498 9.15498 21.6075C7.93432 22.3651 6.88202 23.3543 5.99809 24.5749L0.883929 20.029C1.97832 18.177 3.68304 16.6617 5.99809 15.4831C8.35524 14.2624 11.3648 13.6521 15.0268 13.6521C19.4885 13.6521 22.9611 14.6834 25.4445 16.7459C27.9701 18.7663 29.2328 21.839 29.2328 25.964V40.2331H32.8317V46.9889H27.4649ZM14.0166 41.6222C15.6582 41.6222 17.0472 41.2223 18.1837 40.4225C19.3202 39.6228 19.8884 38.4653 19.8884 36.95V33.0354H14.9005C11.0702 33.0354 9.15498 34.3192 9.15498 36.8868V38.1496C9.15498 39.2861 9.59695 40.1489 10.4809 40.7382C11.3648 41.3275 12.5434 41.6222 14.0166 41.6222Z" fill="#205B75"/>
</svg>
