<svg width="73" height="57" viewBox="0 0 73 57" fill="none" xmlns="http://www.w3.org/2000/svg">
<path d="M63.6556 43.9595H63.2136C62.3718 45.9378 61.1932 47.5583 59.6779 48.8211C58.2047 50.0417 56.1632 50.6521 53.5535 50.6521C51.7436 50.6521 50.081 50.3153 48.5657 49.6419C47.0924 48.9684 45.8086 47.9371 44.7143 46.5481C43.662 45.1591 42.8201 43.3912 42.1887 41.2445C41.5994 39.0978 41.3048 36.5513 41.3048 33.6049C41.3048 30.6584 41.5994 28.1119 42.1887 25.9652C42.8201 23.8185 43.662 22.0506 44.7143 20.6616C45.8086 19.2726 47.0924 18.2413 48.5657 17.5678C50.081 16.8944 51.7436 16.5576 53.5535 16.5576C54.8584 16.5576 56.0159 16.726 57.0261 17.0627C58.0363 17.3995 58.9203 17.8625 59.6779 18.4518C60.4777 19.0411 61.1511 19.7566 61.6983 20.5985C62.2876 21.3982 62.7927 22.2821 63.2136 23.2502H63.6556V3.17242H73V49.8944H63.6556V43.9595ZM57.5944 43.3912C59.236 43.3912 60.646 42.9913 61.8246 42.1916C63.0453 41.3919 63.6556 40.1291 63.6556 38.4033V28.8064C63.6556 27.0806 63.0453 25.8179 61.8246 25.0181C60.646 24.2184 59.236 23.8185 57.5944 23.8185C55.4898 23.8185 53.8692 24.4709 52.7328 25.7758C51.5963 27.0385 51.028 28.8064 51.028 31.0793V36.1304C51.028 38.4033 51.5963 40.1922 52.7328 41.4971C53.8692 42.7598 55.4898 43.3912 57.5944 43.3912Z" fill="white"/>
<path d="M25.0668 0.090109L45.5122 56.7239L53.9094 56.6975L33.4641 0.0637124L25.0668 0.090109Z" fill="white"/>
<path d="M27.4649 46.9889C25.5287 46.9889 23.9713 46.5049 22.7928 45.5368C21.6142 44.5266 20.9197 43.0954 20.7092 41.2434H20.3935C19.8042 43.3901 18.6257 45.0106 16.8578 46.105C15.132 47.1994 13.0064 47.7466 10.4809 47.7466C7.32399 47.7466 4.77743 46.9047 2.8412 45.2211C0.947067 43.4953 0 41.0961 0 38.0234C0 34.6139 1.24171 32.0884 3.72513 30.4468C6.20855 28.8052 9.8495 27.9844 14.648 27.9844H19.8884V26.3429C19.8884 24.4066 19.4254 22.9545 18.4994 21.9864C17.6155 20.9761 16.1001 20.471 13.9535 20.471C11.9751 20.471 10.3756 20.8499 9.15498 21.6075C7.93432 22.3652 6.88202 23.3543 5.99809 24.575L0.883929 20.0291C1.97832 18.177 3.68304 16.6617 5.99809 15.4832C8.35524 14.2625 11.3648 13.6522 15.0268 13.6522C19.4885 13.6522 22.9611 14.6834 25.4445 16.7459C27.9701 18.7663 29.2328 21.839 29.2328 25.964V40.2332H32.8317V46.9889H27.4649ZM14.0166 41.6222C15.6582 41.6222 17.0472 41.2223 18.1837 40.4226C19.3202 39.6229 19.8884 38.4653 19.8884 36.95V33.0355H14.9005C11.0702 33.0355 9.15498 34.3193 9.15498 36.8869V38.1496C9.15498 39.2861 9.59695 40.149 10.4809 40.7383C11.3648 41.3276 12.5434 41.6222 14.0166 41.6222Z" fill="white"/>
</svg>
